<?xml version="1.0" standalone="no"?>
<!DOCTYPE svg PUBLIC "-//W3C//DTD SVG 20010904//EN"
 "http://www.w3.org/TR/2001/REC-SVG-20010904/DTD/svg10.dtd">
<svg version="1.0" xmlns="http://www.w3.org/2000/svg"
 width="500.000000pt" height="500.000000pt" viewBox="0 0 500.000000 500.000000"
 preserveAspectRatio="xMidYMid meet">

<g transform="translate(0.000000,500.000000) scale(0.100000,-0.100000)"
fill="#000000" stroke="none">
<path d="M0 2500 l0 -2500 2500 0 2500 0 0 2500 0 2500 -2500 0 -2500 0 0
-2500z m2161 595 c154 -407 282 -748 285 -757 5 -17 -6 -18 -139 -18 -129 0
-146 2 -152 18 -4 9 -35 96 -70 192 -35 96 -66 183 -70 193 -7 16 -32 17 -329
17 l-322 0 -75 -210 c-43 -121 -79 -210 -86 -210 -7 0 -13 3 -13 8 0 4 119
344 265 756 146 411 265 750 265 752 0 3 37 4 81 2 l82 -3 278 -740z m1293
-33 c214 -60 365 -181 460 -369 36 -73 76 -214 83 -300 l6 -74 -154 3 -154 3
-7 93 c-26 377 -154 580 -396 631 -29 6 -118 11 -197 11 l-145 0 0 -370 0
-370 -139 0 -140 0 -3 324 c-3 310 -4 326 -24 353 -30 42 -80 63 -146 63 -46
0 -58 3 -58 16 0 14 49 15 468 12 444 -4 471 -5 546 -26z m-1574 -1019 c14
-37 27 -71 28 -75 2 -5 -3 -8 -10 -8 -13 0 -58 107 -58 138 0 30 17 7 40 -55z
m92 -8 c-2 -49 -8 -75 -15 -75 -8 0 -12 24 -12 75 0 60 3 75 15 75 12 0 14
-13 12 -75z m111 52 c-4 -19 3 -28 32 -46 29 -17 36 -26 33 -48 -2 -14 -8 -28
-14 -30 -7 -2 -10 5 -7 20 4 19 -2 28 -31 45 -37 22 -46 48 -24 70 16 16 16
16 11 -11z m63 12 c3 -6 2 -15 -4 -21 -6 -6 -11 -2 -15 11 -5 22 7 29 19 10z
m124 -56 c14 -37 27 -71 28 -75 2 -5 -3 -8 -10 -8 -13 0 -58 107 -58 138 0 30
17 7 40 -55z m140 -8 c0 -60 -3 -75 -15 -75 -12 0 -15 15 -15 75 0 60 3 75 15
75 12 0 15 -15 15 -75z m69 49 c12 -15 21 -35 21 -46 0 -22 -18 -60 -34 -70
-20 -14 -28 -8 -12 8 10 9 16 33 16 59 0 26 -6 50 -16 59 -8 9 -11 16 -5 16 5
0 19 -12 30 -26z m86 -49 c0 -60 -3 -75 -15 -75 -12 0 -15 15 -15 75 0 60 3
75 15 75 12 0 15 -15 15 -75z m69 48 c-7 -16 -14 -37 -14 -48 0 -11 7 -32 14
-47 18 -33 4 -37 -18 -6 -22 31 -20 84 4 108 27 27 31 25 14 -7z m82 16 c3 -6
2 -15 -3 -20 -5 -5 -14 0 -21 11 -10 17 -10 20 2 20 8 0 18 -5 22 -11z m74
-64 c0 -65 -2 -75 -17 -75 -16 0 -18 10 -18 75 0 65 2 75 18 75 15 0 17 -10
17 -75z m102 0 c3 -66 1 -75 -14 -75 -16 0 -18 10 -18 75 0 58 3 75 14 75 11
0 15 -18 18 -75z m48 65 c0 -5 -2 -10 -4 -10 -3 0 -8 5 -11 10 -3 6 -1 10 4
10 6 0 11 -4 11 -10z m89 -12 c5 -13 18 -47 30 -75 l21 -53 -22 0 c-12 0 -19
3 -15 6 3 4 -5 35 -18 69 -20 55 -23 75 -8 75 2 0 7 -10 12 -22z m113 -53 c-3
-57 -7 -75 -18 -75 -11 0 -14 17 -14 75 0 65 2 75 18 75 15 0 17 -9 14 -75z
m-424 -37 c-4 -43 -23 -46 -24 -3 0 24 4 35 13 35 10 0 13 -10 11 -32z m-635
-19 c3 -13 1 -19 -6 -16 -15 5 -22 37 -9 37 5 0 12 -9 15 -21z m-43 -9 c0 -5
-5 -10 -11 -10 -5 0 -7 5 -4 10 3 6 8 10 11 10 2 0 4 -4 4 -10z m1170 0 c0 -5
-5 -10 -11 -10 -5 0 -7 5 -4 10 3 6 8 10 11 10 2 0 4 -4 4 -10z m-1403 -6 c-3
-3 -12 -4 -19 -1 -8 3 -5 6 6 6 11 1 17 -2 13 -5z m390 0 c-3 -3 -12 -4 -19
-1 -8 3 -5 6 6 6 11 1 17 -2 13 -5z m753 -354 l0 -220 148 0 c99 0 167 5 205
15 171 44 278 156 337 353 l22 72 139 0 139 0 -15 -37 c-56 -135 -183 -274
-310 -340 -44 -23 -116 -52 -160 -64 -77 -22 -97 -23 -547 -27 -404 -3 -468
-1 -468 11 0 11 17 16 70 19 50 3 77 9 97 24 50 37 57 65 61 247 l4 167 139 0
139 0 0 -220z m-1687 143 c-27 -5 -31 -22 -5 -24 16 -1 16 -2 0 -6 -25 -6 -22
-21 5 -26 19 -4 18 -4 -5 -6 -26 -1 -28 2 -28 34 0 32 2 35 28 34 23 -2 24 -2
5 -6z m161 -1 c3 -5 -5 -8 -17 -8 -16 1 -23 -6 -25 -23 -3 -21 -1 -23 23 -19
17 4 23 2 17 -4 -26 -26 -62 10 -48 48 6 15 41 19 50 6z m157 -8 c17 -21 0
-49 -32 -49 -24 0 -36 23 -25 51 7 19 40 18 57 -2z m109 -29 c-17 -31 -19 -29
-13 13 4 24 9 30 16 23 7 -7 7 -18 -3 -36z m54 5 c6 -34 6 -35 -10 -12 -9 13
-13 30 -10 39 8 20 12 16 20 -27z m131 16 l12 29 7 -33 c5 -18 5 -36 2 -39 -3
-4 -6 5 -6 18 l-1 24 -13 -24 -14 -24 -8 24 -8 24 -7 -25 c-6 -23 -7 -23 -8
-3 -1 12 2 29 6 39 6 15 8 13 16 -11 l10 -28 12 29z m143 17 c-10 -2 -18 -9
-18 -14 0 -5 8 -10 18 -10 16 -1 16 -2 0 -6 -10 -2 -18 -8 -18 -13 0 -5 8 -11
18 -13 13 -4 11 -5 -5 -6 -20 -1 -23 4 -23 34 0 30 3 35 23 34 16 -1 18 -2 5
-6z m148 -4 c3 -6 2 -15 -4 -21 -6 -6 -8 -18 -5 -27 3 -10 0 -9 -8 4 -12 19
-12 19 -20 0 -6 -15 -8 -11 -8 18 -1 30 3 37 18 37 11 0 23 -5 27 -11z m138 3
c3 -5 -5 -8 -17 -8 -16 1 -22 -5 -22 -19 0 -14 6 -20 23 -19 12 0 22 -3 22 -8
0 -15 -42 -4 -53 14 -8 12 -7 21 2 32 14 17 37 21 45 8z m134 1 c-10 -2 -18
-9 -18 -14 0 -5 8 -10 18 -10 16 -1 16 -2 0 -6 -10 -2 -18 -8 -18 -13 0 -5 8
-11 18 -13 13 -4 11 -5 -5 -6 -20 -1 -23 4 -23 34 0 30 3 35 23 34 16 -1 18
-2 5 -6z m-718 -42 c0 -6 -4 -13 -10 -16 -5 -3 -10 1 -10 9 0 9 5 16 10 16 6
0 10 -4 10 -9z m-202 -68 c-24 -6 -23 -19 3 -26 12 -3 19 -12 17 -19 -5 -15
-48 -24 -48 -10 0 6 10 8 23 6 l22 -5 -22 17 c-13 9 -23 23 -23 30 0 8 9 14
23 13 16 -1 18 -2 5 -6z m135 -1 c-6 -4 -13 -21 -15 -37 -3 -29 -4 -29 -9 8
-4 32 -2 37 16 37 12 0 16 -3 8 -8z m143 -48 c-3 -8 -14 -14 -25 -14 -20 0
-32 19 -30 48 1 10 4 6 8 -8 4 -14 15 -26 24 -28 13 -3 17 4 18 30 1 25 3 27
6 10 3 -13 2 -30 -1 -38z m137 35 c14 -22 2 -49 -23 -49 -16 0 -20 6 -20 36 0
28 4 35 16 32 9 -2 21 -10 27 -19z m104 -31 c-2 -13 -4 -5 -4 17 -1 22 1 32 4
23 2 -10 2 -28 0 -40z m154 36 c17 -21 0 -49 -32 -49 -24 0 -36 23 -25 51 7
19 40 18 57 -2z"/>
<path d="M1532 3222 c-84 -240 -152 -440 -152 -444 0 -5 139 -8 309 -8 l309 0
-95 258 c-51 141 -119 334 -149 427 -31 94 -59 178 -63 187 -4 10 -64 -150
-159 -420z"/>
<path d="M1537 1744 c-4 -4 -7 -16 -7 -26 0 -14 6 -19 23 -16 14 2 22 10 22
23 0 20 -25 32 -38 19z"/>
<path d="M2130 1740 c0 -5 7 -10 16 -10 8 0 12 5 9 10 -3 6 -10 10 -16 10 -5
0 -9 -4 -9 -10z"/>
<path d="M1900 1615 c0 -17 5 -25 13 -22 6 2 12 12 12 22 0 10 -6 20 -12 23
-8 2 -13 -6 -13 -23z"/>
<path d="M2147 1634 c-4 -4 -7 -16 -7 -26 0 -14 6 -19 23 -16 14 2 22 10 22
23 0 20 -25 32 -38 19z"/>
</g>
</svg>
